<?xml version="1.0" standalone="no"?>
<!DOCTYPE svg PUBLIC "-//W3C//DTD SVG 20010904//EN"
 "http://www.w3.org/TR/2001/REC-SVG-20010904/DTD/svg10.dtd">
<svg version="1.0" xmlns="http://www.w3.org/2000/svg"
 width="712.000000pt" height="484.000000pt" viewBox="0 0 712.000000 484.000000"
 preserveAspectRatio="xMidYMid meet">

<g transform="translate(0.000000,484.000000) scale(0.100000,-0.100000)"
fill="#000000" stroke="none">
<path d="M0 2420 l0 -2420 3560 0 3560 0 0 2420 0 2420 -3560 0 -3560 0 0
-2420z m1347 2332 c37 -20 63 -62 63 -102 0 -55 -50 -123 -231 -312 -280 -294
-436 -525 -568 -842 -79 -190 -126 -370 -161 -626 -20 -139 -22 -184 -17 -440
6 -324 22 -459 87 -715 48 -192 92 -311 190 -510 132 -269 265 -453 518 -717
78 -81 151 -166 162 -189 30 -57 28 -110 -4 -159 -110 -166 -329 -44 -651 360
-404 507 -596 1000 -650 1668 -78 956 135 1609 747 2298 228 256 396 349 515
286z m4628 -18 c96 -46 192 -129 325 -280 215 -246 348 -438 475 -689 208
-410 283 -774 272 -1319 -12 -600 -116 -1047 -338 -1461 -99 -184 -176 -299
-316 -475 -238 -299 -408 -440 -532 -442 -108 -1 -185 127 -135 225 25 48 44
70 182 212 411 424 621 825 736 1405 33 170 49 357 49 595 1 445 -83 806 -278
1195 -111 222 -267 429 -507 677 -205 211 -234 271 -168 346 56 64 120 67 235
11z m-2482 -369 c142 -130 247 -239 324 -337 287 -363 419 -753 384 -1138 -6
-69 -28 -209 -48 -312 -45 -224 -43 -238 35 -238 93 0 158 62 262 250 29 52
57 101 63 108 7 9 22 -4 59 -55 153 -209 263 -452 315 -693 24 -114 24 -372
-1 -480 -42 -186 -118 -364 -219 -515 -126 -188 -313 -382 -502 -520 l-40 -30
46 55 c124 147 238 352 275 490 21 79 23 210 5 265 -7 22 -25 59 -40 82 l-26
43 -55 -8 c-30 -4 -118 -7 -195 -7 l-140 1 -76 37 c-207 100 -265 295 -203
677 12 75 17 160 17 295 -1 177 -3 198 -31 306 -16 63 -42 141 -57 172 l-28
57 -67 -127 c-97 -186 -135 -250 -320 -533 -92 -140 -185 -286 -207 -325 -116
-200 -218 -440 -265 -623 -39 -152 -49 -354 -24 -477 21 -106 92 -249 154
-311 42 -43 43 -46 12 -24 -65 44 -195 157 -272 236 -198 203 -318 411 -386
664 -22 83 -25 116 -26 270 -1 200 15 294 80 466 59 161 128 284 315 564 270
405 400 632 513 895 149 348 211 604 205 840 l-4 123 28 -20 c16 -11 79 -67
140 -123z"/>
</g>
</svg>
