<?xml version="1.0" standalone="no"?>
<!DOCTYPE svg PUBLIC "-//W3C//DTD SVG 20010904//EN"
 "http://www.w3.org/TR/2001/REC-SVG-20010904/DTD/svg10.dtd">
<svg version="1.0" xmlns="http://www.w3.org/2000/svg"
 width="1200.000000pt" height="1200.000000pt" viewBox="0 0 1200.000000 1200.000000"
 preserveAspectRatio="xMidYMid meet">

<g transform="translate(0.000000,1200.000000) scale(0.100000,-0.100000)"
fill="#000000" stroke="none">
<path d="M5435 11740 c-16 -4 -66 -8 -110 -9 -44 -1 -109 -6 -145 -12 -339
-55 -401 -67 -517 -95 -57 -14 -116 -32 -131 -40 -15 -8 -40 -14 -55 -14 -27
0 -109 -22 -152 -40 -11 -5 -49 -16 -85 -25 -96 -23 -267 -85 -376 -136 -23
-10 -55 -22 -72 -25 -17 -4 -37 -13 -43 -20 -6 -8 -19 -14 -29 -14 -10 0 -23
-6 -29 -14 -7 -8 -27 -17 -45 -20 -35 -7 -426 -198 -448 -219 -7 -7 -40 -26
-73 -43 -33 -16 -86 -47 -117 -67 -31 -20 -61 -37 -67 -37 -5 0 -16 -6 -23
-13 -7 -8 -34 -26 -58 -42 -25 -15 -49 -32 -55 -39 -5 -6 -26 -19 -45 -29 -19
-10 -44 -30 -54 -46 -11 -16 -25 -27 -30 -25 -6 2 -26 -9 -44 -26 -18 -16 -39
-30 -46 -30 -16 0 -82 -59 -78 -71 1 -5 -8 -9 -21 -9 -23 0 -97 -61 -97 -81 0
-5 -4 -7 -10 -4 -5 3 -10 1 -10 -4 0 -6 -6 -11 -13 -11 -8 0 -25 -9 -38 -21
-57 -49 -105 -96 -124 -119 -11 -14 -25 -25 -32 -25 -6 0 -35 -20 -64 -45
-113 -96 -427 -420 -407 -420 2 0 -38 -43 -89 -96 -51 -53 -93 -101 -93 -107
0 -6 -10 -21 -23 -32 -25 -23 -45 -52 -53 -77 -4 -10 -13 -18 -20 -18 -8 0
-14 -7 -14 -15 0 -8 -3 -15 -8 -15 -4 0 -16 -17 -27 -37 -11 -21 -29 -47 -41
-58 -21 -20 -91 -121 -109 -156 -5 -10 -13 -19 -17 -19 -5 0 -8 -7 -8 -15 0
-8 -4 -15 -9 -15 -5 0 -13 -9 -16 -20 -4 -11 -17 -32 -31 -47 -13 -14 -24 -32
-24 -39 0 -7 -6 -17 -13 -21 -7 -4 -26 -34 -42 -66 -16 -31 -34 -62 -42 -68
-7 -7 -13 -18 -13 -25 0 -8 -4 -14 -8 -14 -5 0 -15 -17 -24 -37 -8 -21 -18
-45 -22 -53 -3 -8 -15 -28 -26 -45 -57 -90 -148 -270 -156 -310 -3 -19 -12
-36 -20 -39 -8 -3 -14 -11 -14 -18 0 -6 -9 -30 -19 -52 -43 -91 -61 -136 -61
-150 0 -8 -4 -17 -9 -21 -5 -3 -17 -29 -26 -58 -9 -28 -26 -70 -36 -93 -10
-22 -19 -50 -19 -62 0 -11 -4 -24 -10 -27 -5 -3 -14 -25 -20 -48 -6 -23 -15
-51 -20 -62 -5 -11 -21 -60 -35 -110 -14 -49 -31 -110 -39 -135 -8 -25 -26
-97 -41 -160 -15 -63 -33 -140 -41 -171 -8 -30 -14 -75 -14 -99 0 -23 -9 -74
-21 -112 -12 -41 -23 -119 -28 -191 -4 -68 -13 -131 -19 -142 -18 -33 -34
-271 -39 -575 -6 -375 26 -787 74 -938 7 -23 13 -63 13 -87 0 -58 26 -209 52
-305 11 -41 23 -86 25 -100 8 -41 53 -211 68 -260 8 -25 26 -83 40 -130 28
-89 68 -203 91 -257 8 -17 14 -36 14 -41 0 -6 18 -49 40 -96 22 -47 40 -91 40
-98 0 -8 4 -18 9 -24 4 -5 16 -30 26 -57 10 -26 22 -47 26 -47 5 0 9 -5 9 -12
0 -10 70 -157 99 -208 5 -8 24 -46 43 -83 50 -103 58 -118 93 -172 17 -27 37
-65 45 -83 7 -18 18 -36 24 -40 14 -9 30 -35 55 -89 11 -24 25 -43 30 -43 6 0
11 -5 11 -11 0 -12 59 -92 72 -97 5 -2 8 -9 8 -16 0 -6 12 -25 27 -42 16 -16
28 -34 28 -39 0 -18 60 -95 73 -95 7 0 11 -4 8 -9 -3 -4 3 -16 14 -26 11 -10
20 -23 20 -29 0 -7 9 -18 20 -26 11 -8 20 -18 20 -23 0 -13 58 -86 102 -128
21 -20 38 -41 38 -47 0 -6 36 -48 80 -94 44 -46 80 -84 80 -85 0 -7 274 -273
281 -273 5 0 9 -7 9 -15 0 -8 3 -15 8 -15 4 0 51 -43 104 -95 54 -52 103 -95
110 -95 6 0 27 -17 47 -38 38 -40 114 -102 125 -102 4 0 17 -10 30 -23 13 -12
33 -29 46 -37 12 -8 37 -26 55 -40 18 -14 43 -32 55 -40 12 -8 40 -27 61 -42
21 -16 43 -28 49 -28 5 0 10 -4 10 -10 0 -5 5 -10 11 -10 6 0 37 -20 69 -45
32 -25 62 -45 66 -45 4 0 22 -11 40 -25 18 -14 37 -25 42 -25 5 0 15 -6 21
-14 7 -8 26 -21 44 -30 32 -17 52 -27 85 -46 9 -6 24 -13 32 -17 8 -4 17 -9
20 -12 14 -16 158 -91 175 -91 7 0 18 -7 25 -15 7 -8 21 -15 31 -15 11 0 19
-4 19 -8 0 -4 23 -16 51 -27 28 -11 55 -26 61 -32 6 -7 19 -13 29 -13 11 0 19
-4 19 -8 0 -5 24 -16 54 -25 29 -10 75 -29 102 -43 27 -15 93 -42 146 -60 53
-18 105 -37 115 -43 10 -5 54 -21 98 -36 44 -15 89 -31 100 -36 11 -4 49 -16
85 -25 35 -8 72 -19 80 -24 18 -9 296 -81 405 -104 152 -32 178 -36 221 -36
25 0 66 -6 92 -14 71 -21 163 -35 302 -47 69 -5 163 -14 210 -19 218 -25 974
-1 1035 32 11 6 74 15 140 19 67 5 151 17 190 29 38 11 89 20 113 20 38 0 168
30 191 44 10 6 80 22 161 36 98 17 518 148 544 169 6 5 27 13 46 19 38 11 117
43 190 76 25 11 47 21 50 21 22 7 80 36 84 44 3 4 20 11 37 15 38 7 253 113
315 156 25 16 51 30 58 30 8 0 19 7 26 15 7 8 21 15 31 15 11 0 19 5 19 10 0
6 5 10 11 10 6 0 28 13 49 30 20 16 40 27 43 24 3 -4 23 7 44 23 21 17 53 38
71 47 17 9 32 20 32 25 0 5 8 12 18 15 33 12 77 39 117 71 22 17 55 40 73 50
17 11 32 23 32 27 0 4 5 8 11 8 10 0 48 27 114 81 86 71 136 109 143 109 4 0
27 18 51 40 23 22 46 40 49 40 11 0 163 143 336 316 211 211 289 294 322 344
15 22 30 40 33 40 4 0 17 18 30 40 12 22 30 45 39 52 19 14 82 92 82 102 0 3
9 16 19 28 63 76 111 139 111 147 0 5 3 11 8 13 9 4 64 86 74 111 4 9 12 17
18 17 5 0 10 4 10 8 0 5 25 46 56 93 31 46 62 98 70 114 8 17 20 39 26 50 7
11 28 47 48 80 20 33 41 69 48 80 7 11 17 30 22 43 6 12 14 32 20 45 5 12 14
30 20 40 5 9 15 25 20 35 6 9 15 27 20 40 6 12 14 32 20 45 5 12 14 29 19 37
27 46 61 120 61 134 0 9 5 16 10 16 6 0 10 7 10 17 0 9 11 39 24 68 14 28 34
76 46 106 11 30 25 63 29 74 32 71 130 367 165 500 78 292 96 375 105 477 4
51 12 102 18 113 15 31 32 125 48 282 11 107 15 269 15 655 0 476 -4 564 -29
768 -9 70 -15 107 -56 335 -21 118 -52 251 -70 296 -7 19 -18 62 -24 94 -6 32
-20 78 -31 101 -12 23 -25 66 -29 95 -9 52 -37 139 -67 206 -8 17 -14 36 -14
42 0 6 -11 35 -25 65 -14 30 -25 61 -25 68 0 8 -4 18 -9 24 -5 5 -22 45 -39
89 -17 44 -40 99 -51 122 -12 23 -21 46 -21 51 0 5 -7 15 -15 22 -8 7 -15 19
-15 27 0 8 -11 38 -24 66 -12 29 -25 57 -27 62 -2 6 -23 44 -47 85 -23 41 -46
82 -51 90 -4 8 -13 24 -19 35 -6 11 -20 39 -31 63 -11 24 -31 57 -43 75 -27
37 -44 64 -56 92 -6 11 -26 44 -46 74 -20 29 -36 57 -36 62 0 5 -3 9 -8 9 -4
0 -12 9 -17 19 -17 33 -88 136 -97 139 -4 2 -8 10 -8 18 0 8 -7 14 -17 14 -9
0 -13 3 -10 6 4 4 -7 24 -23 44 -17 21 -30 41 -30 45 0 9 -81 108 -97 118 -7
4 -13 12 -13 18 0 11 -3 16 -68 89 -27 30 -71 81 -97 114 -90 111 -594 606
-617 606 -3 0 -35 29 -72 65 -37 36 -71 65 -76 65 -5 0 -15 6 -22 13 -26 24
-96 77 -103 77 -4 0 -15 8 -24 18 -9 9 -38 33 -66 52 -27 19 -55 39 -62 45
-35 30 -43 35 -49 35 -3 0 -23 14 -44 30 -21 17 -41 30 -45 30 -3 0 -21 11
-39 25 -18 14 -40 25 -48 25 -9 0 -18 7 -22 15 -3 8 -10 15 -16 15 -6 0 -26
11 -44 25 -18 14 -40 25 -49 25 -10 0 -17 4 -17 10 0 5 -11 12 -25 16 -14 3
-25 10 -25 14 0 5 -55 36 -122 70 -68 34 -130 66 -138 70 -8 5 -58 29 -110 55
-52 25 -102 50 -110 55 -14 8 -109 51 -155 70 -11 5 -45 20 -76 33 -32 14 -72
28 -90 32 -19 4 -36 11 -39 15 -5 8 -142 55 -370 128 -76 25 -307 84 -500 128
-14 3 -61 10 -105 15 -82 9 -99 12 -125 22 -8 3 -50 7 -92 10 -43 2 -83 9 -90
14 -30 23 -257 33 -744 32 -274 -1 -512 -5 -529 -9z m990 -75 c241 -19 507
-55 685 -95 108 -24 269 -62 320 -76 163 -46 440 -135 497 -160 17 -8 34 -14
37 -14 30 0 340 -136 546 -239 275 -139 497 -273 755 -459 187 -134 239 -176
437 -348 411 -360 733 -740 1070 -1264 73 -113 182 -310 263 -475 87 -178 96
-198 151 -335 19 -47 39 -94 44 -105 31 -64 155 -434 178 -531 6 -21 24 -93
40 -159 75 -293 130 -645 152 -970 12 -172 12 -617 0 -780 -40 -538 -145
-1032 -324 -1530 -20 -55 -41 -109 -46 -120 -5 -11 -25 -58 -43 -105 -78 -195
-228 -497 -336 -680 -578 -972 -1378 -1720 -2368 -2214 -146 -73 -374 -172
-498 -217 -44 -16 -89 -34 -100 -39 -11 -5 -65 -23 -120 -40 -55 -18 -109 -36
-120 -40 -11 -5 -63 -20 -115 -35 -52 -14 -108 -30 -125 -35 -139 -44 -478
-107 -790 -147 -199 -25 -233 -27 -645 -27 -395 0 -452 2 -620 23 -190 23
-393 56 -560 90 -182 38 -227 49 -380 96 -25 7 -85 26 -135 40 -121 37 -389
132 -460 165 -11 5 -49 21 -85 35 -79 32 -420 200 -510 251 -534 302 -964 640
-1387 1089 -442 471 -776 977 -1046 1585 -35 80 -70 163 -77 185 -7 22 -16 45
-20 50 -4 6 -10 24 -14 40 -4 17 -14 44 -21 60 -17 38 -80 226 -110 330 -94
321 -154 625 -197 985 -20 173 -22 241 -22 600 0 436 11 595 70 935 33 194 84
428 119 545 9 30 23 80 31 110 41 149 158 472 231 640 14 30 31 71 40 90 71
160 239 473 355 660 194 314 474 669 765 971 103 106 352 332 457 414 22 17
57 45 80 64 101 84 428 313 521 365 17 9 46 27 66 39 134 83 377 210 604 314
184 85 496 198 725 263 41 12 86 26 100 31 14 5 54 16 90 23 36 8 106 24 155
36 245 57 575 104 870 123 149 10 651 5 820 -8z"/>
<path d="M5534 11451 c-25 -11 -50 -34 -65 -57 -23 -37 -24 -45 -22 -199 4
-274 23 -354 92 -401 50 -34 175 -35 241 -1 75 38 85 71 83 264 -4 258 -23
340 -87 386 -44 31 -182 36 -242 8z m150 -103 c13 -22 36 -276 36 -400 0 -52
-18 -78 -54 -78 -48 0 -57 38 -71 326 -7 124 -5 142 10 157 23 24 62 21 79 -5z"/>
<path d="M6537 11403 c-25 -166 -77 -637 -70 -643 4 -4 37 -11 73 -14 l65 -7
39 323 c21 178 40 331 42 340 6 19 -7 24 -87 33 l-56 6 -6 -38z"/>
<path d="M5048 11397 l-66 -10 -6 -151 c-3 -83 -7 -242 -9 -354 l-3 -203 23 6
c13 3 43 8 68 12 l45 6 0 78 c0 76 1 79 24 79 13 0 37 3 53 6 28 5 29 4 51
-66 l23 -71 37 7 c20 3 51 9 68 13 l31 6 -76 205 c-42 113 -97 260 -121 328
-32 88 -48 122 -60 120 -8 0 -45 -5 -82 -11z m122 -433 c0 -10 -59 -26 -68
-19 -1 1 -5 63 -7 136 l-4 134 39 -120 c22 -66 40 -125 40 -131z"/>
<path d="M6862 11353 c-6 -26 -22 -102 -36 -168 -42 -203 -86 -419 -91 -441
-4 -19 2 -23 56 -33 34 -7 62 -11 63 -9 2 2 18 78 37 171 18 92 36 167 39 167
3 0 19 -82 37 -181 18 -106 36 -185 44 -190 15 -9 79 -22 85 -17 2 3 123 578
136 653 3 17 -5 22 -52 32 -30 6 -58 8 -61 5 -4 -4 -19 -70 -34 -147 -15 -77
-31 -146 -35 -153 -4 -8 -22 64 -41 158 -36 186 -32 178 -105 194 -31 7 -32 6
-42 -41z"/>
<path d="M4675 11320 c-53 -15 -60 -20 -58 -41 7 -80 44 -398 49 -419 11 -49
-15 -5 -74 130 -94 212 -122 270 -128 270 -15 0 -100 -24 -107 -30 -7 -6 272
-603 292 -623 8 -8 128 19 144 33 7 6 -47 688 -55 695 -2 1 -30 -5 -63 -15z"/>
<path d="M7462 11219 c-47 -24 -91 -88 -116 -169 -8 -25 -31 -97 -51 -160 -54
-172 -48 -246 27 -304 44 -33 145 -61 192 -52 49 9 99 55 124 113 38 91 39 87
-25 107 -32 10 -63 21 -70 23 -7 3 -19 -18 -29 -51 -23 -71 -45 -93 -82 -80
-44 15 -40 53 28 264 49 151 67 194 86 207 22 14 26 14 49 -1 29 -19 31 -45
10 -106 -8 -23 -15 -44 -15 -45 0 -4 121 -45 132 -45 12 0 38 99 38 145 0 59
-33 104 -100 137 -79 39 -144 45 -198 17z"/>
<path d="M4038 11121 c-42 -16 -68 -32 -68 -41 0 -14 18 -118 80 -460 11 -63
25 -138 31 -167 l10 -52 57 21 c31 11 60 23 64 27 4 3 0 35 -7 71 -8 36 -14
68 -15 72 0 5 83 38 97 38 1 0 17 -25 34 -55 17 -30 35 -58 41 -61 5 -3 36 4
69 16 l59 22 -21 37 c-23 38 -69 112 -136 221 -22 36 -78 127 -124 202 -46 76
-88 137 -94 137 -5 -1 -40 -13 -77 -28z m142 -292 c34 -61 58 -114 53 -118 -4
-4 -20 -12 -35 -19 -26 -11 -28 -10 -34 16 -3 15 -14 61 -24 102 -29 120 -31
130 -26 130 2 0 31 -50 66 -111z"/>
<path d="M3585 10916 c-33 -11 -222 -101 -234 -112 -4 -3 296 -594 309 -608 9
-9 182 79 238 121 87 66 83 131 -23 343 -42 84 -87 169 -101 189 -43 65 -116
91 -189 67z m43 -124 c24 -24 192 -358 192 -382 0 -17 -47 -60 -67 -60 -6 0
-190 351 -215 412 -5 13 0 22 20 32 36 20 48 20 70 -2z"/>
<path d="M5990 10845 l0 -65 36 0 c32 0 35 -2 29 -22 -4 -13 -18 -32 -31 -43
-13 -12 -24 -29 -24 -39 0 -15 5 -17 27 -11 59 14 79 53 85 157 l3 76 -29 6
c-15 3 -44 6 -62 6 l-34 0 0 -65z"/>
<path d="M8386 10839 l-27 -48 40 -20 c22 -12 42 -25 45 -29 3 -5 -57 -121
-133 -258 -76 -137 -137 -252 -134 -257 5 -9 124 -70 127 -65 1 2 60 107 130
235 70 127 133 239 140 248 12 16 15 16 55 -5 47 -23 47 -23 80 32 l22 36
-103 58 c-57 31 -128 71 -159 89 l-55 32 -28 -48z"/>
<path d="M8684 10329 c-136 -137 -246 -250 -244 -252 21 -17 100 -67 106 -67
5 0 31 22 59 49 l50 49 38 -24 c20 -13 37 -31 37 -39 0 -9 -11 -38 -25 -65
-14 -27 -25 -53 -25 -58 0 -5 23 -26 52 -46 45 -31 53 -34 61 -20 14 24 264
587 270 609 5 16 -7 29 -62 66 l-69 46 -248 -248z m154 -79 l-61 -120 -28 21
c-16 11 -29 24 -29 28 0 7 168 191 175 191 1 0 -24 -54 -57 -120z"/>
<path d="M2935 10547 c-149 -107 -205 -149 -205 -153 0 -2 88 -128 196 -280
135 -188 201 -273 211 -270 8 3 65 42 128 87 l114 82 -26 38 c-14 22 -29 39
-32 39 -4 0 -35 -20 -68 -45 l-62 -45 -62 87 -62 86 26 19 c14 10 35 27 48 36
l22 18 -28 42 -28 42 -47 -35 c-26 -19 -50 -35 -52 -35 -7 0 -102 140 -97 143
2 2 30 23 62 46 36 26 55 47 51 54 -19 32 -46 67 -52 66 -4 0 -21 -10 -37 -22z"/>
<path d="M7703 10513 c-13 -31 -22 -57 -20 -58 7 -5 106 -45 110 -45 6 0 47
95 47 108 0 8 -92 52 -109 52 -3 0 -16 -26 -28 -57z"/>
<path d="M5580 10360 c-8 -5 -46 -10 -85 -10 -115 0 -536 -75 -597 -106 -15
-8 -37 -14 -50 -14 -39 0 -365 -104 -441 -140 -23 -11 -44 -20 -49 -20 -10 0
-101 -42 -108 -49 -3 -3 -12 -7 -20 -9 -36 -7 -120 -45 -120 -55 0 -6 -3 -7
-6 -4 -7 7 -144 -62 -156 -78 -4 -5 -8 -6 -8 -1 0 5 -8 2 -17 -6 -10 -9 -47
-31 -83 -49 -36 -19 -73 -41 -83 -50 -9 -9 -30 -22 -45 -29 -57 -28 -131 -83
-125 -93 3 -6 1 -7 -5 -3 -11 7 -122 -71 -122 -85 0 -5 -8 -9 -19 -9 -21 0
-73 -48 -65 -61 3 -5 -2 -6 -11 -2 -10 3 -20 2 -24 -3 -3 -5 -37 -34 -76 -64
-38 -30 -87 -71 -107 -92 -20 -21 -41 -38 -46 -38 -5 0 -35 -24 -66 -53 -31
-30 -56 -52 -56 -51 0 4 -82 -80 -167 -170 -35 -36 -60 -66 -56 -66 3 0 -25
-33 -63 -74 -81 -87 -139 -155 -139 -165 0 -4 -15 -22 -32 -41 -18 -19 -33
-38 -33 -43 0 -4 -12 -21 -28 -38 -15 -17 -26 -35 -25 -40 2 -5 -2 -9 -8 -9
-5 0 -7 -4 -4 -10 3 -5 2 -10 -4 -10 -6 0 -18 -15 -27 -32 -10 -18 -23 -37
-30 -43 -7 -5 -37 -53 -68 -105 -30 -52 -59 -99 -63 -105 -5 -5 -27 -46 -48
-90 -22 -44 -43 -82 -46 -85 -12 -11 -89 -170 -82 -170 4 0 2 -5 -5 -12 -7 -7
-12 -20 -12 -30 0 -10 -4 -18 -8 -18 -10 0 -52 -99 -52 -123 0 -9 -4 -17 -10
-17 -5 0 -10 -7 -10 -15 0 -8 -4 -23 -9 -33 -24 -46 -89 -229 -119 -337 -7
-22 -21 -73 -32 -113 -24 -83 -49 -201 -60 -282 -5 -30 -13 -75 -19 -99 -7
-24 -16 -85 -22 -135 -5 -50 -14 -116 -19 -146 -5 -30 -12 -163 -16 -295 -7
-257 5 -511 32 -677 9 -51 19 -122 23 -158 19 -157 130 -593 180 -705 10 -22
23 -58 30 -80 7 -22 21 -59 32 -82 10 -24 19 -47 19 -53 0 -5 5 -10 10 -10 6
0 10 -10 10 -21 0 -12 9 -38 19 -58 10 -20 25 -51 31 -69 7 -17 16 -32 21 -32
5 0 9 -9 9 -19 0 -11 5 -23 10 -26 6 -4 8 -10 5 -15 -3 -5 3 -13 12 -19 10 -5
15 -12 11 -16 -3 -4 10 -34 29 -68 20 -34 49 -88 65 -119 16 -32 34 -58 39
-58 6 0 8 -4 5 -9 -3 -4 3 -19 14 -31 11 -12 22 -31 25 -41 4 -11 11 -19 16
-19 5 0 9 -7 9 -15 0 -16 67 -118 82 -123 4 -2 8 -9 8 -15 0 -7 16 -30 35 -52
19 -22 35 -44 35 -48 0 -9 6 -16 54 -73 20 -23 36 -45 36 -50 0 -5 20 -29 45
-54 25 -25 52 -56 59 -70 8 -14 116 -126 241 -250 257 -256 251 -250 261 -250
4 0 34 -25 66 -56 32 -31 61 -54 64 -52 2 3 22 -11 43 -31 50 -47 63 -57 108
-83 21 -12 41 -27 45 -33 4 -5 11 -10 15 -10 9 0 47 -27 91 -62 15 -13 30 -23
34 -23 4 0 26 -13 50 -29 24 -16 61 -39 83 -51 22 -12 54 -30 70 -40 72 -44
374 -190 393 -190 11 0 22 -4 24 -8 4 -9 106 -55 163 -72 22 -7 52 -19 67 -26
15 -8 35 -16 45 -17 10 -2 25 -7 33 -10 114 -47 473 -140 605 -157 44 -6 100
-15 125 -21 185 -40 656 -60 950 -40 96 7 179 16 185 22 5 5 34 9 64 9 65 0
182 19 196 31 5 5 29 9 55 9 25 0 70 7 100 16 30 9 70 18 88 21 18 3 35 9 38
14 3 5 19 9 36 9 34 0 248 58 263 71 5 5 16 9 24 9 22 0 235 81 242 92 3 6 9
9 13 9 3 -1 7 -1 9 0 1 0 9 2 17 4 8 1 44 17 80 33 36 17 70 31 75 32 6 1 24
9 40 17 17 9 39 20 50 26 153 79 256 136 276 153 9 8 19 11 22 8 4 -4 9 1 13
10 3 9 14 16 24 16 10 0 23 7 30 15 7 8 18 15 26 15 7 0 17 6 21 14 4 7 31 25
59 40 28 15 61 38 74 51 13 14 29 25 35 25 7 0 20 9 30 20 10 11 23 20 30 20
6 0 26 16 45 35 19 19 40 35 47 35 8 0 16 7 19 15 4 8 10 15 16 15 5 0 15 6
23 13 7 6 42 35 76 62 142 113 425 395 527 525 28 36 64 79 81 96 16 18 37 46
45 63 9 17 21 31 27 31 5 0 17 16 25 35 8 19 19 35 26 35 6 0 9 3 6 6 -3 3 5
16 19 30 13 13 21 29 17 36 -4 7 -3 8 4 4 7 -4 12 -1 12 8 0 9 4 16 9 16 5 0
14 13 21 30 7 16 16 30 21 30 4 0 11 9 14 20 3 11 12 26 18 32 20 20 77 110
77 121 0 5 9 22 21 38 11 16 17 29 12 29 -4 0 -3 4 2 8 16 11 45 60 45 76 0 8
3 16 8 18 4 2 22 35 40 73 19 39 39 79 45 90 20 37 69 140 71 150 1 6 12 31
24 56 86 185 234 690 249 849 3 36 9 72 14 81 4 8 16 73 26 145 15 109 18 196
18 564 -1 428 -1 438 -28 605 -33 200 -83 436 -95 444 -4 3 -9 17 -9 31 -3 40
-25 110 -35 110 -5 0 -8 6 -5 13 4 13 -27 134 -47 182 -47 109 -67 162 -72
185 -2 8 -8 16 -13 18 -6 2 -11 12 -11 23 0 17 -38 107 -50 119 -3 3 -6 12 -8
20 -2 8 -8 17 -13 18 -5 2 -9 12 -9 22 0 18 -19 70 -30 80 -3 3 -21 37 -41 75
-67 132 -94 180 -111 199 -10 11 -18 26 -18 33 0 7 -4 13 -10 13 -5 0 -10 7
-10 16 0 16 -36 73 -55 86 -6 5 -6 8 0 8 7 0 7 3 0 8 -6 4 -23 27 -38 50 -16
24 -41 57 -55 74 -15 16 -26 32 -24 34 5 8 -80 118 -168 218 -25 28 -57 67
-72 86 -33 45 -421 434 -430 432 -5 -1 -8 3 -8 9 0 5 -13 15 -30 20 -16 6 -28
14 -27 19 2 10 -58 65 -95 88 -16 9 -28 20 -28 24 0 4 -7 8 -15 8 -8 0 -15 5
-15 11 0 6 -7 8 -17 5 -10 -4 -15 -4 -11 -1 3 4 -11 23 -33 42 -22 20 -42 33
-45 30 -3 -3 -18 7 -32 21 -15 15 -36 33 -47 40 -56 35 -81 52 -90 59 -5 5
-17 12 -25 16 -8 4 -28 16 -45 27 -44 29 -100 61 -175 100 -37 19 -74 41 -84
49 -9 7 -16 11 -16 7 0 -4 -11 1 -25 10 -14 9 -25 12 -25 8 0 -5 -4 -4 -8 1
-4 6 -20 17 -37 25 -16 8 -38 21 -47 29 -10 8 -18 11 -18 8 0 -3 -36 12 -80
34 -44 21 -85 39 -91 39 -5 0 -24 7 -41 16 -17 9 -42 18 -56 20 -15 3 -29 9
-32 13 -3 5 -36 19 -75 31 -74 24 -92 30 -139 49 -80 32 -442 119 -525 126
-35 3 -71 10 -81 15 -10 6 -45 10 -77 10 -33 0 -63 4 -68 9 -20 19 -240 31
-569 31 -203 0 -347 -4 -356 -10z m681 -60 c836 -64 1606 -356 2263 -859 199
-152 461 -399 631 -596 423 -490 734 -1092 893 -1730 89 -354 116 -593 116
-1005 1 -349 -10 -487 -60 -760 -197 -1074 -803 -2026 -1702 -2673 -229 -164
-597 -366 -869 -476 -335 -135 -706 -229 -1103 -278 -181 -22 -732 -25 -905
-5 -713 83 -1308 295 -1896 677 -338 219 -702 551 -964 880 -503 629 -805
1353 -900 2155 -23 187 -31 589 -16 775 71 898 395 1701 966 2392 113 136 410
433 537 537 53 44 94 84 91 89 -3 6 -2 7 4 4 5 -3 33 12 62 34 281 213 652
420 991 554 412 162 804 250 1285 288 99 8 454 6 576 -3z"/>
<path d="M5685 10134 c-774 -61 -1501 -331 -2110 -784 -830 -616 -1395 -1519
-1579 -2523 -52 -279 -61 -391 -61 -737 0 -320 6 -413 41 -638 168 -1071 769
-2045 1653 -2676 634 -452 1397 -715 2163 -744 835 -33 1598 165 2303 596 397
244 799 608 1092 992 743 973 1007 2238 716 3425 -259 1060 -926 1965 -1863
2527 -483 290 -1031 475 -1630 548 -86 11 -633 21 -725 14z m172 -291 c48 -59
95 -116 103 -126 14 -17 22 -10 120 108 97 116 107 125 139 125 39 0 264 -21
269 -25 2 -2 -73 -97 -166 -211 l-170 -208 106 -131 c181 -223 234 -288 280
-343 25 -29 43 -54 41 -56 -2 -3 -76 6 -164 19 -88 14 -167 24 -175 25 -9 0
-69 65 -135 145 -92 112 -122 142 -130 133 -7 -7 -63 -73 -125 -146 -62 -73
-123 -135 -134 -137 -44 -10 -330 -45 -333 -41 -3 2 20 33 49 68 158 187 378
458 378 463 0 4 -60 79 -132 167 -186 225 -202 247 -186 253 14 5 182 21 240
24 35 1 40 -4 125 -106z m-582 -15 c95 -20 263 -114 242 -135 -13 -12 -160 -5
-250 12 -44 8 -97 15 -119 15 -46 0 -128 -19 -128 -30 0 -4 37 -10 83 -13 148
-12 161 -27 56 -65 -155 -56 -316 -68 -415 -31 -64 24 -120 69 -112 90 3 8 54
31 114 53 60 21 118 44 129 51 37 22 138 56 195 65 60 9 126 5 205 -12z m1695
-5 c30 -8 75 -25 100 -38 25 -12 92 -39 150 -60 58 -21 110 -42 115 -47 17
-16 -67 -85 -126 -102 -101 -31 -270 -15 -411 38 -34 13 -64 28 -65 33 -5 13
95 33 159 33 26 0 48 4 48 10 0 25 -138 38 -215 20 -22 -6 -83 -14 -136 -20
-152 -15 -177 3 -84 59 155 94 306 118 465 74z m-1386 -229 c33 -9 65 -21 70
-25 5 -5 -11 -17 -36 -28 -43 -18 -84 -28 -212 -51 -58 -10 -146 -52 -146 -70
0 -4 24 -2 53 6 127 34 274 40 264 11 -7 -22 -125 -77 -207 -96 -47 -11 -126
-23 -175 -26 -111 -9 -315 11 -315 30 0 19 105 112 180 160 77 50 177 91 252
104 70 13 194 6 272 -15z m1082 11 c88 -17 176 -55 261 -113 59 -40 163 -137
163 -152 0 -8 -51 -15 -186 -26 -103 -8 -268 11 -362 42 -75 25 -152 67 -152
84 0 21 76 22 180 2 58 -12 115 -24 126 -28 18 -7 18 -7 -1 15 -32 36 -71 52
-169 67 -102 16 -216 51 -216 65 0 13 42 28 120 44 88 18 144 18 236 0z
m-2111 -9 c28 -7 68 -22 90 -34 l40 -20 -30 -7 c-84 -19 -137 -38 -197 -69
-36 -20 -84 -38 -107 -42 -59 -9 -51 -24 14 -24 30 0 55 -4 55 -9 0 -32 -147
-114 -247 -137 -93 -21 -211 -2 -272 45 l-24 18 93 48 c51 27 118 72 149 100
31 29 75 64 98 78 98 62 229 83 338 53z m3135 -23 c37 -17 96 -57 135 -92 42
-37 107 -81 162 -109 51 -26 93 -52 93 -58 0 -15 -87 -52 -150 -64 -61 -12
-126 -5 -200 21 -59 21 -170 91 -187 118 -9 14 -3 16 53 13 74 -4 87 12 18 22
-25 3 -73 21 -107 40 -34 19 -91 43 -127 52 -66 18 -88 29 -78 39 3 4 37 17
74 31 97 35 220 30 314 -13z m-2860 -138 c0 -4 -7 -19 -15 -35 -11 -21 -32
-35 -83 -54 -38 -15 -100 -46 -139 -70 -86 -53 -214 -148 -208 -154 10 -11 58
12 136 64 142 96 289 151 289 110 0 -30 -76 -131 -151 -200 -84 -78 -207 -143
-334 -176 -95 -25 -295 -39 -295 -21 0 22 68 147 110 201 112 146 270 250 455
301 93 25 235 46 235 34z m2456 -16 c213 -33 428 -164 548 -333 40 -56 106
-176 106 -192 0 -14 -217 5 -295 25 -126 32 -274 112 -354 190 -64 61 -141
166 -141 191 0 38 151 -19 282 -105 62 -41 123 -75 137 -75 21 0 19 4 -22 35
-117 89 -238 164 -300 184 -65 22 -107 56 -107 87 0 15 11 14 146 -7z m-1886
-109 c0 -5 -52 -46 -115 -90 -105 -75 -136 -100 -120 -100 13 0 76 36 182 106
145 96 148 96 113 0 -40 -105 -188 -210 -387 -275 -101 -33 -260 -67 -270 -58
-3 4 7 37 23 74 66 156 255 286 494 339 71 15 80 16 80 4z m1285 -15 c224 -58
386 -175 454 -326 23 -49 27 -79 11 -79 -6 0 -45 7 -88 16 -275 57 -494 178
-552 306 -21 46 -26 88 -11 88 5 0 45 -25 89 -55 116 -80 242 -149 227 -125
-3 5 -58 46 -123 91 -64 46 -123 89 -130 96 -21 20 11 17 123 -12z m-2545 -95
c0 -37 -68 -113 -130 -146 -28 -16 -57 -19 -155 -19 l-120 0 -75 -52 c-168
-118 -172 -135 -14 -64 129 58 174 70 174 47 0 -8 -18 -30 -40 -47 -53 -43
-51 -57 3 -24 58 36 214 115 227 115 37 0 -17 -103 -99 -187 -54 -56 -273
-247 -315 -275 -6 -4 -7 -10 -4 -13 15 -16 139 66 237 157 99 92 182 150 196
136 18 -17 -96 -184 -192 -281 -119 -121 -268 -209 -421 -248 -120 -30 -118
-33 -68 87 60 145 211 344 330 433 48 36 22 34 -35 -2 -143 -91 -289 -147
-401 -155 -110 -7 -113 8 -17 105 272 276 584 435 867 442 30 0 52 -3 52 -9z
m3863 -5 c204 -36 419 -145 622 -316 88 -74 195 -182 195 -197 0 -26 -93 -29
-184 -6 -67 17 -234 93 -310 142 -27 18 -52 30 -54 27 -2 -2 35 -41 83 -86 93
-89 150 -158 208 -254 40 -68 101 -214 93 -223 -11 -10 -180 38 -252 72 -92
44 -184 106 -253 170 -93 89 -227 283 -208 303 14 14 80 -31 179 -124 93 -87
186 -152 236 -165 12 -3 22 -4 22 -2 0 2 -66 59 -147 127 -155 130 -215 189
-256 253 -29 45 -43 94 -27 94 19 0 154 -65 213 -103 80 -51 91 -46 26 12 -30
27 -51 52 -46 57 11 11 100 -19 206 -71 52 -25 96 -43 98 -41 8 8 -45 52 -141
117 l-89 60 -91 -6 c-102 -8 -164 7 -224 53 -29 22 -82 97 -82 115 0 12 94 8
183 -8z m-3123 -24 c0 -34 -88 -194 -149 -272 -33 -42 -94 -104 -136 -137 -75
-61 -260 -162 -296 -162 -25 0 -25 38 -1 118 35 111 111 191 229 240 67 29 77
28 69 -3 -4 -14 -2 -25 3 -25 14 0 60 58 75 95 18 43 75 98 139 135 61 35 67
36 67 11z m2292 -23 c53 -33 104 -87 121 -127 12 -28 76 -101 89 -101 5 0 1
11 -8 25 -23 35 -13 40 42 21 149 -50 247 -168 270 -323 6 -38 4 -43 -12 -43
-28 0 -161 61 -227 104 -155 100 -316 306 -362 464 -6 22 -5 23 17 17 12 -4
44 -21 70 -37z m-1051 -238 c92 -5 213 -17 269 -25 830 -125 1560 -609 1995
-1323 557 -917 546 -2073 -28 -2979 -392 -617 -1026 -1068 -1736 -1234 -138
-32 -319 -59 -441 -65 -63 -3 -133 -7 -155 -9 -69 -5 -359 14 -467 30 -529 83
-1017 306 -1413 646 -523 450 -857 1053 -961 1741 -22 142 -30 534 -14 685 90
880 574 1650 1335 2125 372 232 847 381 1295 407 74 5 140 9 145 9 6 1 85 -3
176 -8z m-1851 -88 c0 -5 -16 -39 -35 -77 -19 -38 -41 -100 -50 -139 -22 -97
-66 -175 -149 -263 -92 -99 -222 -189 -312 -217 -19 -6 -20 -3 -17 51 11 162
50 241 179 366 79 76 108 111 128 157 28 61 65 100 97 100 17 0 17 -5 -10 -52
-26 -49 -49 -128 -37 -128 3 0 20 29 37 64 35 71 78 118 124 134 38 13 45 14
45 4z m3500 -17 c38 -20 66 -55 96 -120 23 -49 29 -56 32 -36 2 13 -10 50 -27
84 -16 34 -28 64 -25 66 2 3 20 -3 39 -12 27 -13 41 -31 65 -83 24 -53 49 -85
129 -163 109 -106 144 -162 167 -270 13 -64 19 -151 9 -151 -16 0 -124 55
-177 91 -79 53 -185 159 -231 232 -22 33 -48 98 -67 164 -17 59 -44 131 -61
159 -16 28 -29 54 -29 58 0 8 48 -3 80 -19z m-4500 -253 c-24 -20 -69 -62
-100 -94 -52 -53 -139 -117 -205 -151 -43 -22 -76 -60 -78 -92 -3 -41 14 -40
65 5 25 22 51 40 56 40 6 0 13 6 16 13 3 6 3 1 0 -13 -29 -129 -203 -310 -352
-367 -50 -19 -58 -14 -44 24 6 15 30 82 55 148 24 67 55 139 69 160 86 135
259 266 444 335 111 41 131 39 74 -8z m5474 18 c138 -47 268 -127 369 -228 86
-84 129 -155 172 -279 18 -54 40 -115 49 -136 10 -22 16 -43 14 -49 -6 -16
-160 68 -229 126 -86 70 -199 239 -176 262 3 3 31 -15 62 -40 30 -25 60 -46
65 -46 16 0 12 48 -6 75 -9 14 -53 46 -97 73 -45 26 -120 83 -167 127 -47 44
-101 92 -120 108 -28 23 -31 27 -13 27 11 0 46 -9 77 -20z m-5444 -79 c0 -147
-92 -362 -239 -558 -28 -38 -22 -52 14 -33 27 14 94 114 125 183 25 58 76 126
103 136 65 24 67 24 67 -7 0 -101 -97 -291 -227 -446 -63 -75 -238 -226 -261
-226 -12 0 -14 20 -9 133 9 245 73 405 237 597 28 32 55 77 64 107 17 51 74
137 98 146 25 10 28 7 28 -32z m5429 -7 c23 -26 51 -74 63 -107 13 -37 41 -82
71 -116 103 -117 170 -245 206 -391 24 -100 36 -249 24 -304 l-8 -38 -90 74
c-224 186 -366 399 -400 596 -8 47 -3 50 48 28 46 -19 77 -58 132 -161 56
-105 98 -161 126 -170 30 -10 35 2 12 28 -33 36 -118 167 -152 234 -43 87 -80
202 -90 281 -13 107 -3 115 58 46z m-5154 -377 c-1 -205 -22 -265 -182 -510
-48 -73 -94 -147 -103 -165 l-17 -34 -23 54 c-18 41 -24 77 -28 159 -5 127 7
175 77 317 27 53 57 122 66 152 25 79 55 128 91 150 44 28 55 26 48 -10 -9
-42 2 -37 27 11 34 68 44 39 44 -124z m4870 105 l25 -47 -6 43 c-7 53 11 56
61 10 26 -24 45 -58 69 -123 18 -50 56 -136 84 -192 57 -116 78 -210 69 -311
-7 -75 -36 -172 -51 -172 -12 1 -197 283 -238 365 -46 90 -71 198 -72 310 -1
109 9 179 25 170 5 -4 21 -27 34 -53z m-5625 -357 c0 -12 -65 -133 -96 -180
-41 -62 -85 -110 -146 -158 -50 -41 -87 -102 -70 -119 6 -6 32 17 73 65 94
109 102 112 79 29 -40 -144 -125 -315 -216 -432 -54 -71 -161 -176 -170 -167
-11 11 -4 153 11 241 42 238 136 419 297 571 99 94 238 181 238 150z m6435
-46 c150 -96 288 -262 355 -427 51 -128 90 -316 90 -439 0 -61 -18 -56 -100
27 -79 80 -163 202 -214 312 -42 91 -99 255 -93 271 2 6 37 -28 77 -76 41 -48
77 -87 82 -87 4 0 8 12 8 27 0 21 -21 47 -94 117 -105 101 -183 214 -210 304
-11 34 10 28 99 -29z m-6428 -216 c-6 -149 -35 -249 -123 -433 -35 -75 -64
-147 -64 -162 0 -26 24 -56 33 -41 12 19 107 265 132 343 35 107 52 140 70
140 11 0 15 -13 16 -52 l0 -53 23 61 c26 70 61 130 79 137 10 4 13 -13 13 -72
-1 -109 15 -265 26 -249 24 38 30 94 18 175 -11 66 -11 94 -1 138 12 52 62
134 87 142 7 2 14 -20 17 -57 4 -35 20 -92 39 -133 29 -65 32 -81 32 -162 -1
-50 -9 -119 -18 -155 -24 -87 -177 -410 -195 -410 -13 0 -81 186 -102 280 -10
47 -19 109 -19 138 0 88 -15 58 -34 -65 -26 -176 -51 -268 -102 -368 -46 -92
-148 -245 -163 -245 -13 0 -60 150 -72 230 -14 93 -6 263 17 350 9 36 37 110
61 165 25 55 76 173 113 263 108 258 126 272 117 95z m6356 74 c9 -18 34 -79
57 -137 23 -58 68 -162 100 -231 102 -221 131 -358 111 -539 -11 -99 -53 -254
-72 -266 -12 -7 -21 4 -84 98 -106 159 -144 255 -174 446 -12 70 -25 152 -30
182 l-9 55 -1 -56 c-2 -115 -44 -291 -100 -423 -11 -25 -24 -46 -29 -46 -13 0
-168 326 -189 395 -11 40 -17 95 -18 165 0 96 3 110 29 165 20 41 31 81 34
128 5 77 17 84 55 34 52 -69 59 -100 53 -242 -5 -101 -3 -137 8 -160 8 -16 15
-23 16 -15 1 8 3 24 6 35 2 11 7 80 11 153 6 131 6 132 26 115 21 -19 77 -129
77 -150 0 -7 5 -13 11 -13 8 0 10 14 6 40 -4 30 -2 40 9 40 21 0 39 -36 79
-155 50 -152 128 -336 140 -332 6 2 11 21 13 42 3 31 -9 65 -57 164 -71 150
-96 220 -116 336 -15 89 -20 197 -9 208 11 11 33 -5 47 -36z m-6086 -969 c-3
-13 -16 -94 -28 -180 l-22 -157 -144 -117 c-78 -65 -143 -118 -143 -119 0 -1
65 -57 145 -125 115 -98 146 -130 150 -154 12 -70 43 -321 40 -325 -2 -1 -118
91 -257 206 -139 115 -259 212 -265 217 -8 4 -87 -54 -215 -159 -111 -91 -205
-165 -208 -165 -6 0 -30 216 -30 266 0 15 37 52 125 125 69 57 122 106 117
109 -243 204 -252 212 -247 233 2 12 9 79 16 150 6 70 13 127 15 127 3 0 53
-40 112 -88 59 -49 152 -125 206 -169 l100 -81 155 126 c86 70 190 154 231
187 41 33 88 72 105 87 37 34 49 35 42 6z m5858 -87 c50 -40 157 -128 238
-195 82 -66 156 -126 165 -133 14 -10 31 0 103 60 295 246 324 267 330 244 13
-44 31 -280 22 -286 -18 -12 -243 -203 -243 -206 0 -2 51 -45 113 -96 61 -51
118 -98 125 -104 11 -10 10 -36 -2 -150 -8 -76 -17 -140 -20 -143 -3 -2 -92
67 -198 155 -106 88 -199 163 -206 167 -13 8 -25 -2 -366 -284 -94 -76 -172
-137 -174 -135 -3 2 6 81 18 175 l23 172 101 86 c55 48 120 105 145 128 l44
41 -141 117 c-116 96 -142 123 -147 149 -14 79 -45 294 -45 311 0 13 4 16 13
9 6 -6 53 -43 102 -82z m-6305 -958 c68 -93 146 -252 170 -346 11 -43 27 -130
37 -193 9 -62 20 -114 23 -114 4 0 10 35 13 78 3 42 18 118 32 167 28 98 75
215 87 215 23 0 179 -335 199 -425 7 -33 13 -98 13 -145 1 -70 -3 -93 -22
-129 -27 -51 -52 -142 -52 -188 0 -18 -4 -33 -10 -33 -5 0 -25 21 -44 46 -50
65 -63 131 -46 237 12 81 6 137 -19 175 -10 16 -24 -126 -25 -244 0 -54 -3
-81 -11 -78 -17 7 -65 92 -83 150 -9 30 -19 54 -22 54 -3 0 -3 -25 -2 -55 2
-30 0 -55 -5 -55 -22 1 -35 25 -74 135 -22 66 -64 176 -92 244 -46 112 -52
122 -65 105 -21 -29 -9 -71 52 -196 89 -182 126 -319 126 -464 0 -67 -3 -84
-15 -84 -18 0 -32 27 -84 159 -23 56 -70 165 -105 244 -96 213 -116 292 -116
448 0 133 51 359 81 359 5 0 32 -30 59 -67z m6749 13 c39 -106 54 -210 48
-345 -6 -153 -24 -221 -108 -402 -33 -74 -83 -190 -111 -259 -53 -133 -63
-150 -84 -150 -21 0 -18 146 5 250 24 105 56 191 114 306 25 49 49 101 52 117
9 33 -2 80 -16 75 -14 -5 -98 -209 -144 -350 -34 -104 -54 -138 -78 -138 -6 0
-7 21 -4 50 7 62 -6 65 -23 6 -15 -56 -67 -146 -83 -146 -8 0 -11 18 -9 62 1
35 -4 108 -11 163 -13 95 -15 99 -27 70 -7 -17 -12 -59 -10 -95 8 -198 6 -213
-23 -262 -15 -26 -37 -54 -50 -63 -22 -15 -22 -15 -29 47 -3 35 -20 96 -39
138 -27 64 -32 86 -31 155 0 44 7 112 16 150 20 87 180 420 197 409 30 -18
102 -235 114 -341 17 -151 20 -159 30 -71 13 114 55 308 80 368 43 102 174
310 195 310 5 0 18 -24 29 -54z m-7041 -415 c116 -116 225 -299 288 -484 42
-124 31 -127 -63 -17 -41 48 -71 76 -77 70 -18 -18 18 -72 91 -138 75 -67 137
-151 187 -249 39 -79 36 -88 -22 -59 -238 121 -423 393 -477 702 -17 97 -20
244 -5 244 5 0 40 -31 78 -69z m7337 59 c11 -18 -15 -232 -40 -326 -53 -202
-119 -319 -254 -455 -92 -91 -226 -186 -252 -177 -14 5 70 168 117 224 18 23
55 61 81 85 26 24 60 57 75 73 29 29 46 72 33 84 -6 7 -35 -21 -127 -127 -52
-60 -53 -58 -11 74 31 95 107 252 165 338 41 61 184 217 199 217 4 0 11 -5 14
-10z m-6310 -681 c98 -147 162 -276 180 -364 24 -113 18 -315 -9 -315 -7 0
-22 19 -34 43 l-23 42 5 -37 c5 -43 5 -43 -34 -23 -43 22 -74 70 -105 160 -15
44 -48 118 -72 164 -24 46 -51 109 -59 140 -26 102 -13 279 27 354 11 20 12
19 30 -14 9 -20 52 -87 94 -150z m5342 85 c21 -80 21 -205 -1 -278 -9 -32 -37
-97 -61 -145 -23 -47 -55 -119 -69 -160 -34 -96 -54 -128 -92 -152 -42 -26
-44 -25 -44 19 l-1 37 -26 -49 c-22 -43 -27 -47 -35 -32 -6 10 -12 64 -15 120
-8 172 26 288 136 462 38 60 91 144 118 186 55 89 64 88 90 -8z m-5799 -66
c84 -58 246 -228 310 -325 64 -98 118 -224 129 -298 5 -42 4 -45 -18 -45 -38
0 -86 41 -121 103 -91 161 -125 213 -150 226 -44 25 -44 5 0 -51 94 -122 168
-271 202 -405 21 -80 27 -173 11 -173 -23 0 -101 105 -118 156 -11 37 -35 76
-71 117 -66 76 -101 126 -135 193 -34 67 -74 193 -87 274 -10 69 -14 260 -4
260 3 0 26 -14 52 -32z m6159 -128 c-9 -224 -80 -402 -229 -569 -26 -30 -53
-71 -59 -90 -7 -20 -20 -53 -30 -73 -20 -40 -83 -108 -99 -108 -14 0 -12 64 4
140 29 135 107 300 205 430 44 59 49 70 27 70 -24 0 -84 -77 -127 -162 -66
-131 -111 -178 -170 -178 -19 0 -21 4 -15 38 37 205 213 459 430 619 73 54 71
59 63 -117z m-6389 -214 c85 -43 154 -94 209 -155 53 -59 103 -140 113 -185
l8 -35 -24 16 c-13 8 -24 19 -24 23 0 4 -18 20 -40 35 -32 22 -43 26 -53 16
-9 -9 -7 -20 8 -48 15 -27 45 -52 112 -93 51 -30 126 -87 165 -126 40 -39 90
-85 111 -103 38 -31 38 -32 10 -26 -165 37 -340 138 -464 268 -69 72 -106 139
-155 278 -20 57 -42 116 -50 131 -26 49 -17 50 74 4z m6636 -13 c-9 -21 -34
-87 -55 -148 -57 -158 -113 -238 -236 -336 -93 -74 -184 -125 -287 -160 -114
-40 -128 -37 -64 13 29 23 81 70 115 104 34 35 97 83 141 109 93 54 119 79
128 123 9 44 -15 43 -69 -6 -74 -66 -77 -68 -68 -35 27 94 123 219 221 286 71
50 143 87 168 87 22 0 22 0 6 -37z m-5529 -242 c130 -68 263 -191 330 -306 13
-22 35 -82 50 -134 14 -51 39 -120 56 -152 35 -70 35 -69 9 -69 -55 0 -103 45
-153 145 -20 39 -36 66 -36 60 -1 -31 23 -105 45 -138 14 -22 23 -42 19 -45
-8 -9 -76 29 -86 48 -4 8 -17 36 -29 62 -21 46 -62 93 -168 191 -78 72 -119
168 -137 320 -8 71 -4 71 100 18z m4450 -28 c-8 -79 -47 -203 -77 -247 -12
-17 -61 -69 -110 -116 -66 -62 -98 -102 -122 -150 -23 -47 -41 -70 -66 -82
-19 -10 -36 -16 -38 -14 -2 2 8 26 21 53 23 45 43 123 32 123 -3 0 -18 -28
-34 -62 -15 -35 -42 -76 -59 -91 -31 -30 -105 -61 -110 -47 -2 5 10 32 27 62
17 29 41 94 55 145 32 121 65 180 154 274 85 91 147 138 240 185 94 48 95 47
87 -33z m-4841 -109 c33 -8 111 -39 171 -69 134 -65 245 -157 334 -275 57 -76
117 -177 109 -185 -13 -13 -103 48 -176 118 -48 46 -107 97 -132 114 -48 32
-120 66 -127 59 -2 -2 64 -62 148 -132 84 -71 176 -158 206 -194 49 -59 84
-132 71 -146 -7 -6 -145 56 -186 84 -102 70 -126 72 -51 5 22 -20 39 -41 39
-49 0 -19 -83 6 -199 62 -145 69 -133 44 37 -73 l83 -57 122 0 c115 -1 125 -3
169 -29 44 -25 108 -101 108 -126 0 -13 -12 -14 -100 -11 -105 3 -242 44 -375
110 -153 75 -278 166 -419 302 -126 122 -126 128 -15 128 100 0 244 -52 374
-135 28 -18 61 -37 73 -44 37 -20 16 10 -34 49 -54 42 -148 148 -205 231 -43
64 -114 207 -125 252 -5 23 -3 27 16 27 12 0 50 -7 84 -16z m5236 0 c0 -33
-66 -172 -121 -253 -64 -97 -155 -199 -223 -251 -25 -19 -47 -41 -50 -48 -6
-14 -7 -15 69 34 143 90 309 154 403 154 99 0 100 -4 21 -79 -38 -36 -100
-109 -138 -161 -143 -202 -337 -291 -663 -307 -138 -7 -140 -6 -114 46 22 42
87 96 140 116 38 15 64 17 140 12 93 -6 93 -6 150 28 66 40 189 135 182 142
-2 2 -28 -8 -57 -22 -58 -30 -222 -95 -239 -95 -23 0 -8 30 30 60 53 42 51 58
-2 25 -57 -34 -187 -100 -217 -110 -23 -7 -24 -5 -18 24 9 41 58 113 122 176
42 42 266 234 299 257 6 4 8 10 4 13 -15 15 -133 -61 -221 -143 -52 -48 -112
-100 -134 -114 -42 -29 -83 -44 -83 -31 0 26 115 189 184 261 130 135 257 214
422 261 86 25 114 26 114 5z m-4225 -354 c176 -86 313 -222 405 -403 68 -133
66 -146 -11 -107 -57 29 -117 87 -141 134 -21 42 -75 106 -90 106 -5 0 -4 -9
2 -19 17 -33 12 -40 -19 -31 -157 45 -273 176 -288 327 -6 55 -6 55 18 48 13
-4 69 -29 124 -55z m3252 -1 c-13 -149 -129 -275 -296 -324 -22 -7 -23 -5 -17
19 14 57 -34 13 -80 -73 -18 -34 -47 -68 -79 -91 -46 -35 -107 -70 -120 -70
-31 0 66 193 150 297 70 87 176 177 260 221 63 33 167 80 179 81 5 1 6 -26 3
-60z m-3507 -239 c232 -26 440 -125 552 -262 38 -46 98 -137 98 -149 0 -11
-83 2 -133 22 -27 11 -97 50 -155 88 -105 67 -152 90 -152 74 1 -10 137 -110
220 -161 36 -21 93 -49 128 -62 56 -21 102 -59 102 -86 0 -14 -156 5 -243 31
-160 46 -288 125 -398 243 -64 69 -142 193 -154 245 -7 25 -5 27 21 27 16 0
67 -5 114 -10z m786 -25 c242 -56 432 -166 494 -285 24 -47 35 -100 20 -100
-6 0 -45 24 -88 54 -124 87 -232 147 -232 128 0 -4 57 -45 125 -92 69 -47 125
-90 125 -96 0 -26 -196 28 -310 86 -101 51 -171 108 -218 177 -35 53 -72 130
-72 152 0 9 42 3 156 -24z m2945 -54 c-110 -219 -307 -373 -555 -435 -71 -18
-203 -35 -211 -28 -13 13 29 60 67 77 130 55 162 73 265 147 98 70 128 98 108
98 -14 0 -97 -47 -168 -96 -79 -53 -151 -86 -219 -98 -48 -9 -49 3 -5 71 125
197 357 323 627 342 58 3 110 5 117 3 8 -3 0 -29 -26 -81z m-741 68 c0 -26
-63 -139 -102 -184 -85 -97 -254 -185 -420 -219 -42 -9 -82 -16 -88 -16 -16 0
27 34 142 114 54 37 100 72 104 77 13 21 -74 -24 -183 -96 -62 -41 -118 -75
-124 -75 -5 0 -7 12 -3 28 23 99 111 193 246 258 93 46 141 63 278 98 104 27
150 32 150 15z m-1598 -104 c87 -13 162 -26 168 -30 5 -3 60 -67 121 -141 61
-74 115 -134 119 -132 4 2 62 66 129 144 l121 140 172 22 c190 25 198 25 183
14 -6 -4 -106 -123 -223 -265 l-213 -259 95 -116 c52 -64 129 -157 170 -207
41 -49 73 -91 71 -93 -4 -5 -240 -32 -270 -31 -13 0 -53 41 -120 124 -55 68
-103 123 -106 122 -3 -1 -48 -51 -99 -112 -51 -60 -98 -116 -105 -123 -10 -11
-36 -12 -151 -1 -77 6 -143 15 -148 20 -6 5 192 261 311 401 13 14 -4 39 -159
228 -274 336 -262 320 -241 320 10 0 89 -11 175 -25z m-1349 -255 c67 -21 202
-102 212 -128 4 -12 -3 -13 -38 -8 -24 4 -54 3 -67 -2 -22 -8 -19 -10 29 -22
29 -7 81 -27 115 -46 35 -18 93 -41 130 -50 38 -9 66 -22 66 -29 0 -18 -111
-54 -185 -62 -112 -10 -232 36 -335 129 -56 52 -131 100 -205 132 -32 15 -54
30 -50 36 9 15 79 49 122 59 64 15 138 12 206 -9z m3742 6 c58 -16 125 -46
125 -57 0 -5 -40 -29 -89 -54 -49 -25 -120 -73 -158 -107 -132 -117 -277 -162
-408 -127 -123 32 -157 61 -87 74 57 10 138 41 171 64 16 11 55 27 86 36 89
23 83 30 -25 26 l-45 -2 40 37 c73 66 209 122 300 123 22 1 63 -5 90 -13z
m-2668 -67 c126 -17 293 -85 293 -119 0 -17 -139 -11 -230 9 -47 11 -86 18
-88 16 -2 -2 12 -14 30 -28 34 -26 58 -34 208 -63 110 -21 164 -42 150 -59
-22 -26 -156 -48 -268 -42 -122 6 -196 27 -291 85 -111 67 -225 171 -208 188
20 21 287 29 404 13z m1761 -5 c17 -4 32 -12 32 -18 0 -31 -149 -150 -252
-202 -97 -49 -176 -67 -288 -66 -104 1 -225 29 -225 52 0 18 93 48 203 65 63
9 107 22 137 40 44 26 61 51 28 41 -126 -39 -293 -51 -293 -21 0 31 159 95
285 115 59 9 310 5 373 -6z m-2081 -235 c94 -13 263 -67 263 -84 0 -15 -33
-22 -141 -31 -89 -8 -88 -18 5 -35 37 -6 73 -6 112 1 33 6 112 16 177 22 93 9
120 9 130 -1 15 -15 -9 -35 -104 -86 -149 -78 -316 -86 -474 -21 -50 20 -139
55 -200 78 -60 22 -112 42 -114 44 -9 9 55 65 96 85 37 18 103 34 155 38 9 0
52 -4 95 -10z m2259 -20 c46 -17 124 -82 113 -94 -3 -2 -63 -27 -135 -54 -71
-27 -158 -61 -194 -77 -86 -36 -232 -45 -330 -19 -66 17 -174 69 -220 105 -21
17 -23 21 -10 30 19 14 152 5 269 -16 89 -17 168 -13 210 10 21 12 16 14 -58
20 -169 14 -182 29 -58 69 182 59 302 66 413 26z"/>
<path d="M5771 8800 c-706 -55 -1360 -382 -1827 -914 -404 -460 -627 -993
-673 -1612 -15 -198 6 -480 54 -716 180 -883 793 -1621 1635 -1965 483 -197
1023 -249 1544 -148 212 41 561 157 539 179 -4 4 0 4 10 1 10 -5 69 20 161 68
636 331 1105 878 1336 1556 17 50 29 95 26 100 -4 5 -2 11 3 13 23 8 82 324
101 538 55 632 -131 1282 -518 1803 -92 125 -117 154 -251 291 -433 443 -998
721 -1616 795 -124 15 -397 21 -524 11z m-366 -346 c197 -48 375 -202 478
-416 23 -48 44 -87 47 -87 3 -1 21 29 40 66 19 37 59 101 90 143 208 279 494
376 780 263 187 -74 318 -209 377 -387 24 -73 27 -95 27 -231 -1 -82 -5 -168
-10 -190 l-10 -39 -42 86 c-98 197 -243 293 -407 267 -81 -13 -135 -41 -206
-106 -71 -66 -120 -144 -148 -237 -20 -63 -21 -91 -21 -405 l1 -336 51 -35
c77 -52 198 -171 238 -232 l35 -55 200 -6 c110 -4 266 -7 347 -7 137 0 151 2
210 27 88 38 180 97 222 143 126 140 125 358 -2 501 -45 51 -143 118 -209 144
-24 10 -43 21 -43 25 0 14 127 23 259 17 149 -6 253 -34 347 -95 169 -110 274
-320 274 -547 0 -251 -127 -463 -357 -596 -29 -17 -53 -34 -53 -37 0 -4 25
-22 55 -40 127 -77 249 -206 299 -316 46 -101 51 -127 51 -261 0 -108 -4 -143
-23 -205 -73 -231 -218 -378 -434 -437 -71 -20 -330 -24 -403 -7 l-40 10 85
44 c117 61 228 170 260 255 46 124 5 289 -93 378 -55 50 -131 101 -193 129
-47 22 -60 23 -378 26 -181 2 -340 1 -352 -2 -12 -3 -31 -21 -41 -38 -31 -51
-184 -209 -247 -253 l-56 -40 2 -370 3 -370 36 -75 c64 -134 166 -224 288
-256 79 -20 134 -13 215 28 94 47 183 149 246 283 l24 49 9 -29 c6 -17 10
-111 11 -210 0 -170 -1 -184 -27 -257 -72 -207 -218 -336 -452 -399 -205 -55
-404 -5 -581 147 -69 59 -168 190 -207 276 -17 37 -34 68 -38 68 -4 0 -11 -10
-15 -22 -13 -42 -109 -186 -168 -253 -147 -166 -317 -242 -521 -232 -300 15
-541 214 -601 498 -17 77 -14 303 3 378 l9 35 47 -96 c55 -110 132 -196 217
-242 46 -25 66 -30 130 -30 80 -1 176 26 164 46 -4 7 -2 8 4 4 27 -17 137 86
191 179 57 98 60 120 67 494 l7 348 -79 60 c-88 67 -174 154 -222 224 l-31 47
-334 7 c-256 6 -344 4 -373 -5 -85 -27 -180 -85 -245 -150 -83 -82 -104 -135
-104 -265 0 -80 3 -97 30 -150 51 -101 157 -188 300 -246 49 -20 38 -25 -97
-39 -245 -25 -488 48 -609 183 -154 171 -212 447 -141 674 47 151 167 297 314
384 l78 46 -67 43 c-86 56 -195 160 -245 233 -143 210 -133 516 25 746 120
175 333 264 592 247 55 -4 116 -10 135 -14 l34 -8 -33 -14 c-108 -44 -248
-166 -293 -254 -46 -90 -32 -253 29 -343 43 -63 140 -142 223 -182 l75 -36
346 -3 346 -3 55 68 c72 89 181 196 241 236 l47 32 -2 365 -3 365 -28 65 c-42
99 -89 162 -157 213 -158 119 -334 104 -475 -39 -56 -57 -145 -194 -145 -223
0 -9 -3 -11 -9 -6 -5 6 -15 55 -21 110 -19 162 3 312 66 444 86 177 282 301
524 331 63 7 101 4 185 -16z"/>
<path d="M3992 8534 c-54 -55 -57 -74 -5 -30 22 19 73 89 61 85 -2 -1 -27 -26
-56 -55z"/>
<path d="M7924 8575 c25 -40 57 -74 81 -87 15 -8 -46 64 -94 112 -3 3 3 -8 13
-25z"/>
<path d="M3431 8025 c-30 -44 -45 -77 -48 -109 -3 -26 -1 -46 4 -46 16 0 51
43 66 80 14 33 33 140 25 140 -1 0 -23 -29 -47 -65z"/>
<path d="M8490 8053 c0 -63 53 -183 81 -183 13 0 11 77 -3 103 -6 12 -26 42
-45 66 l-33 44 0 -30z"/>
<path d="M3383 4295 c4 -29 22 -66 53 -112 l47 -68 -7 54 c-8 65 -29 117 -58
148 -32 34 -41 29 -35 -22z"/>
<path d="M8542 4317 c-30 -32 -49 -83 -57 -152 -6 -60 -6 -60 10 -30 9 17 25
39 35 50 26 28 50 88 50 125 0 36 -9 38 -38 7z"/>
<path d="M3990 3685 c45 -46 62 -58 39 -27 -29 38 -63 72 -73 72 -6 0 10 -20
34 -45z"/>
<path d="M7973 3706 c-15 -13 -37 -39 -47 -57 -17 -31 -16 -31 18 8 21 24 47
50 59 58 12 8 16 15 10 15 -6 0 -24 -11 -40 -24z"/>
<path d="M9287 10236 c-54 -16 -94 -51 -212 -189 -113 -131 -155 -200 -155
-257 0 -78 78 -163 150 -163 42 0 48 -5 28 -25 -10 -10 -5 -20 27 -47 l40 -34
25 32 c23 29 133 158 184 215 l21 24 -50 44 c-28 25 -62 54 -76 64 l-27 20
-25 -34 -26 -33 21 -21 21 -20 -33 -41 c-36 -47 -58 -61 -92 -61 -48 0 -64 52
-31 100 41 61 248 293 269 302 18 8 29 7 49 -6 34 -22 32 -44 -10 -98 l-34
-46 51 -42 c58 -49 65 -48 112 17 41 59 46 120 13 175 -22 38 -72 86 -116 113
-28 16 -87 21 -124 11z"/>
<path d="M2529 10206 c-19 -7 -43 -17 -53 -23 -24 -14 -195 -156 -196 -163 0
-3 69 -85 153 -181 83 -97 184 -212 222 -257 39 -44 72 -81 75 -81 14 -2 185
159 206 194 28 48 32 111 8 158 -22 43 -236 290 -279 323 -45 34 -93 44 -136
30z m39 -143 c42 -37 251 -283 257 -304 7 -22 -19 -69 -42 -76 -9 -3 -232 239
-304 331 l-22 28 24 19 c30 23 61 24 87 2z"/>
<path d="M9552 9729 c-201 -189 -242 -240 -242 -304 0 -89 122 -215 208 -215
54 0 129 53 294 206 90 84 174 163 187 177 l23 26 -43 50 c-24 28 -48 51 -52
51 -4 0 -42 -33 -85 -73 -149 -143 -304 -282 -325 -293 -34 -19 -77 8 -77 48
0 21 68 89 372 369 l38 34 -46 53 c-25 28 -49 52 -52 52 -4 0 -94 -81 -200
-181z"/>
<path d="M1906 9626 l-36 -44 125 -103 c68 -57 123 -105 121 -107 -2 -1 -79
19 -170 47 l-167 49 -34 -36 c-18 -20 -31 -40 -28 -45 2 -4 113 -98 246 -209
133 -110 249 -207 259 -215 14 -13 19 -11 38 9 12 13 30 35 41 49 l19 26 -136
112 c-75 61 -130 111 -122 111 7 0 89 -25 182 -56 l170 -57 33 39 33 39 -23
18 c-20 17 -214 177 -420 350 -45 37 -84 67 -88 67 -4 0 -23 -20 -43 -44z"/>
<path d="M10035 9364 c-66 -47 -191 -135 -277 -196 l-158 -110 31 -44 30 -44
27 18 c209 146 330 229 342 236 15 9 -8 -16 -162 -179 -100 -105 -138 -150
-138 -161 0 -5 11 -22 24 -39 l24 -30 197 98 c109 54 199 96 202 94 2 -3 -25
-26 -60 -53 -193 -147 -266 -205 -272 -213 -9 -16 46 -93 59 -83 6 5 131 99
278 209 l266 201 -40 53 c-22 30 -43 58 -48 62 -4 5 -88 -28 -185 -73 -97 -45
-179 -79 -182 -77 -4 4 79 96 219 242 l48 51 -46 62 c-25 34 -49 62 -52 62 -4
-1 -61 -39 -127 -86z"/>
<path d="M1486 9079 l-48 -71 57 -52 c31 -29 144 -140 251 -246 l194 -194 18
24 c9 13 27 41 39 61 l23 37 -55 47 c-55 46 -55 47 -39 73 42 71 37 70 110 34
37 -18 67 -32 69 -30 14 18 74 112 72 114 -2 1 -591 253 -633 270 -6 3 -32
-27 -58 -67z m297 -168 l108 -51 -21 -30 c-12 -16 -24 -30 -27 -30 -5 0 -121
101 -183 159 -19 18 -20 21 -5 13 11 -5 69 -33 128 -61z"/>
<path d="M1305 8697 c-17 -8 -44 -30 -62 -50 -30 -34 -149 -245 -142 -251 17
-12 104 -59 274 -146 110 -56 229 -119 264 -138 73 -40 70 -42 117 50 l24 47
-135 68 c-74 37 -135 73 -135 78 0 6 4 16 9 24 7 11 35 7 160 -23 83 -20 152
-36 154 -36 7 0 71 129 67 133 -3 3 -79 20 -170 38 l-165 34 -3 30 c-10 90
-173 180 -257 142z m95 -147 c60 -31 75 -73 45 -130 l-15 -30 -85 43 c-47 23
-85 48 -85 56 0 8 11 29 26 48 30 39 57 42 114 13z"/>
<path d="M10560 8581 c-43 -14 -303 -143 -347 -172 -85 -59 -106 -145 -59
-244 56 -119 133 -149 257 -100 38 15 69 29 69 31 0 13 -62 124 -69 124 -5 0
-34 -12 -64 -26 -44 -20 -61 -23 -76 -15 -26 14 -35 45 -21 71 14 26 363 200
401 200 32 0 59 -31 52 -61 -3 -10 -30 -33 -59 -50 -30 -17 -54 -33 -54 -35 0
-3 14 -32 30 -65 l31 -60 47 26 c59 32 72 43 100 79 55 72 -2 241 -99 291 -30
16 -97 18 -139 6z"/>
<path d="M1023 8233 c-4 -10 -33 -83 -64 -163 -32 -79 -56 -147 -53 -151 2 -4
24 -14 49 -23 51 -17 42 -24 75 59 l9 25 48 -19 c259 -105 480 -191 488 -191
9 0 55 104 55 125 0 6 -118 57 -263 114 -144 57 -264 106 -266 107 -2 2 4 23
13 47 9 23 16 45 16 49 0 6 -75 38 -91 38 -5 0 -13 -8 -16 -17z"/>
<path d="M10622 8014 c-173 -67 -317 -124 -322 -126 -6 -2 33 -121 46 -137 2
-2 31 8 66 21 404 158 564 221 570 227 3 3 -6 36 -20 72 l-27 67 -313 -124z"/>
<path d="M10980 7856 c-37 -14 -37 -16 -29 -90 l4 -30 -270 -84 c-148 -46
-271 -85 -272 -86 -8 -7 40 -136 51 -136 7 0 132 38 279 84 l267 83 10 -36
c17 -60 22 -64 68 -51 23 6 44 15 47 20 3 6 -10 63 -30 127 -74 241 -62 222
-125 199z"/>
<path d="M835 7723 c-15 -49 -34 -112 -43 -141 -13 -44 -14 -55 -3 -62 8 -4
136 -44 285 -89 149 -45 292 -88 317 -95 l45 -14 42 142 c23 77 42 144 42 148
0 10 -69 31 -84 25 -7 -3 -21 -35 -30 -71 -12 -44 -23 -66 -33 -66 -13 0 -184
49 -190 54 -1 1 4 24 13 51 8 27 12 55 10 61 -2 6 -23 16 -46 22 -40 10 -42 9
-51 -16 -6 -15 -13 -39 -16 -54 -3 -16 -12 -28 -20 -28 -34 0 -153 43 -153 55
0 7 9 42 20 76 10 35 18 64 17 65 -8 5 -72 24 -83 24 -7 0 -24 -36 -39 -87z"/>
<path d="M10979 7321 c-181 -104 -190 -108 -300 -130 -63 -13 -124 -25 -135
-28 -21 -4 -21 -6 -7 -71 7 -36 15 -67 17 -69 2 -2 65 10 140 26 l138 29 204
-20 c112 -12 207 -19 210 -15 3 3 0 32 -7 66 l-12 61 -66 1 c-36 0 -88 4 -114
7 l-48 7 100 55 c72 39 100 59 97 70 -3 8 -8 33 -12 55 -3 22 -9 45 -13 51 -4
8 -72 -26 -192 -95z"/>
<path d="M1301 7188 c-7 -36 -16 -70 -20 -76 -6 -10 -36 -6 -127 13 -65 15
-139 30 -164 35 -25 5 -99 21 -164 35 -66 14 -121 24 -122 22 -4 -4 -33 -141
-31 -142 1 -1 148 -32 326 -69 178 -37 330 -70 336 -72 8 -4 22 43 45 146 18
83 31 153 29 155 -2 2 -25 6 -50 10 l-46 7 -12 -64z"/>
<path d="M588 6218 c-5 -198 -4 -198 70 -190 l32 4 0 90 0 90 28 -7 c15 -3
146 -38 292 -78 l265 -73 3 64 c2 35 1 66 -1 68 -2 2 -71 22 -153 44 -82 23
-214 59 -294 80 -80 22 -166 40 -192 40 l-47 0 -3 -132z"/>
<path d="M11178 6312 c-22 -4 -22 -14 -2 -53 8 -17 14 -32 12 -34 -5 -5 -260
-14 -420 -14 l-128 -1 0 -72 0 -71 218 6 c119 4 274 7 345 7 l127 0 0 55 c0
52 -10 75 -74 172 -3 4 -64 9 -78 5z"/>
<path d="M995 5881 c-41 -10 -86 -35 -109 -60 -29 -31 -33 -103 -8 -144 l20
-35 -37 -6 c-60 -10 -126 -7 -145 7 -29 21 -17 60 22 72 32 9 32 10 32 72 0
60 -1 63 -25 63 -42 0 -104 -31 -127 -63 -18 -26 -22 -44 -21 -102 1 -108 38
-162 127 -186 50 -14 339 4 430 27 112 27 151 79 144 194 -5 89 -36 133 -110
155 -54 16 -141 18 -193 6z m201 -157 c4 -17 1 -31 -9 -41 -31 -31 -185 -45
-207 -19 -18 22 -8 59 20 73 14 7 61 13 107 13 81 0 83 -1 89 -26z"/>
<path d="M10710 5842 c-65 -29 -90 -77 -90 -175 0 -61 4 -79 22 -103 44 -57
86 -71 258 -89 292 -31 365 -16 407 84 19 45 18 142 -2 180 -22 44 -89 79
-170 90 -119 16 -201 -9 -232 -70 -17 -32 -16 -100 1 -125 14 -20 13 -20 -59
-12 -98 10 -125 21 -125 52 0 29 16 43 55 48 29 3 30 4 33 66 l3 62 -43 -1
c-24 0 -50 -3 -58 -7z m478 -164 c26 -8 32 -15 32 -38 0 -36 -20 -43 -115 -41
-84 2 -118 20 -113 59 2 22 9 28 38 32 43 7 114 2 158 -12z"/>
<path d="M955 5357 c-88 -18 -177 -41 -198 -51 -76 -37 -106 -107 -87 -200 25
-122 116 -167 272 -135 70 15 134 52 154 91 22 42 14 111 -16 143 l-23 24 24
5 c62 15 138 22 156 15 21 -7 33 -34 26 -56 -2 -7 -20 -17 -39 -23 -22 -7 -33
-17 -30 -25 2 -7 8 -33 11 -59 6 -38 11 -46 29 -46 41 1 104 37 121 71 22 41
17 138 -9 192 -46 94 -133 106 -391 54z m35 -167 c28 -52 -26 -83 -145 -84
-69 -1 -70 -1 -73 26 -4 32 18 46 98 64 83 18 108 17 120 -6z"/>
<path d="M10650 5349 c-75 -30 -121 -133 -100 -224 19 -84 139 -149 272 -147
76 1 115 23 139 76 18 41 18 61 3 108 -6 19 -3 20 32 15 126 -20 169 -51 138
-96 -11 -15 -22 -18 -47 -14 l-33 5 -11 -64 c-6 -34 -9 -65 -7 -67 2 -2 28 -4
58 -5 95 -1 146 56 153 172 9 133 -44 173 -297 222 -158 30 -255 37 -300 19z
m129 -130 c96 -16 131 -59 78 -94 -19 -12 -34 -13 -88 -4 -86 15 -119 33 -119
64 0 24 22 44 49 45 8 0 44 -5 80 -11z"/>
<path d="M10467 4820 c-10 -33 -17 -62 -17 -64 0 -11 522 -315 566 -330 26 -9
48 -15 50 -13 1 1 18 58 39 127 20 69 41 138 45 153 8 24 6 29 -13 36 -50 19
-77 21 -82 9 -2 -7 -14 -48 -27 -90 l-23 -78 -258 155 c-142 85 -259 155 -261
155 -1 0 -10 -27 -19 -60z"/>
<path d="M1110 4772 c-179 -53 -327 -97 -329 -99 -3 -2 3 -27 13 -56 13 -38
32 -64 71 -100 l53 -48 46 13 46 14 -30 41 c-27 37 -29 42 -13 47 10 3 128 37
263 77 135 39 246 72 247 73 3 2 -37 136 -40 135 -1 -1 -148 -44 -327 -97z"/>
<path d="M10193 3995 c-18 -35 -33 -66 -33 -68 0 -2 70 -61 156 -131 85 -71
154 -130 152 -132 -2 -2 -33 6 -68 17 -239 75 -316 97 -321 91 -12 -13 -72
-133 -68 -136 7 -7 574 -315 589 -321 11 -4 22 7 38 40 l22 45 -23 13 c-24 15
-179 102 -297 166 -41 22 -69 41 -62 41 11 0 97 -26 414 -126 12 -4 23 6 38
37 13 24 18 44 12 48 -37 24 -341 265 -338 268 2 2 90 -39 195 -91 105 -53
193 -96 196 -96 10 0 45 81 40 91 -5 8 -598 310 -607 309 -2 0 -18 -29 -35
-65z"/>
<path d="M1408 3881 c-179 -53 -329 -99 -333 -102 -9 -9 47 -119 61 -119 6 0
37 9 69 20 31 11 61 18 64 15 4 -2 16 -23 26 -46 l19 -42 -34 -26 c-19 -14
-45 -35 -58 -46 l-24 -21 23 -44 c12 -25 26 -50 31 -57 11 -13 17 -9 225 151
70 55 172 134 227 175 54 42 101 81 103 88 3 7 -12 43 -34 81 l-38 68 -327
-95z m171 -89 c-13 -10 -61 -44 -106 -76 l-82 -57 -16 32 c-9 17 -14 34 -10
37 8 9 206 80 224 81 7 1 3 -7 -10 -17z"/>
<path d="M1815 3440 c-77 -54 -168 -118 -203 -142 -143 -98 -197 -139 -197
-149 0 -18 89 -142 140 -195 92 -95 141 -88 349 53 168 114 193 135 217 189
21 47 18 85 -14 149 -30 62 -127 195 -140 194 -7 0 -75 -45 -152 -99z m179
-105 c21 -32 20 -58 -1 -77 -53 -46 -329 -228 -346 -228 -23 0 -67 37 -67 55
0 6 33 34 73 60 39 27 125 87 191 132 65 46 122 83 126 83 4 0 15 -11 24 -25z"/>
<path d="M9808 3348 c-48 -67 -85 -125 -82 -129 2 -4 57 -45 122 -90 64 -46
188 -134 274 -196 l158 -113 38 53 c65 87 142 197 142 201 0 2 -18 15 -39 29
l-40 26 -47 -64 -47 -64 -83 57 c-46 31 -84 61 -84 65 0 5 14 29 31 53 17 25
29 47 27 48 -1 1 -19 15 -40 30 l-36 27 -32 -45 c-17 -26 -36 -46 -41 -46 -6
0 -39 21 -75 46 -71 51 -71 51 -13 125 16 20 29 41 29 47 0 8 -63 63 -72 62
-2 0 -42 -55 -90 -122z"/>
<path d="M9484 2938 c-60 -67 -112 -127 -117 -134 -4 -8 8 -24 34 -45 l41 -33
35 39 34 38 22 -20 c12 -11 109 -98 216 -193 l194 -174 49 54 c27 30 47 57 46
60 -3 6 -324 294 -400 360 l-27 23 35 42 35 43 -40 31 c-21 17 -41 31 -43 31
-3 0 -54 -55 -114 -122z"/>
<path d="M2523 2704 c-48 -24 -100 -87 -113 -136 -9 -31 -9 -69 -2 -139 12
-114 2 -170 -36 -199 -32 -26 -48 -25 -67 4 -17 26 -13 46 21 93 l24 32 -52
35 c-29 19 -56 32 -60 30 -5 -3 -22 -29 -38 -57 -50 -88 -36 -159 48 -235 72
-65 164 -63 233 4 62 60 73 103 66 248 -6 140 5 183 55 200 55 19 76 -31 34
-81 l-24 -29 53 -37 c50 -34 53 -35 68 -19 40 44 57 124 38 175 -13 35 -69 87
-116 108 -49 23 -90 23 -132 3z"/>
<path d="M9098 2557 c-32 -29 -58 -56 -58 -61 0 -7 100 -178 290 -496 31 -52
61 -95 66 -95 6 0 31 18 57 40 l48 41 -41 62 c-22 35 -40 64 -40 66 0 3 18 19
40 36 l40 31 56 -45 56 -46 26 19 c15 10 38 31 52 46 l25 27 -21 16 c-12 10
-115 89 -229 177 -114 88 -228 177 -253 198 -26 20 -49 37 -52 37 -3 -1 -31
-24 -62 -53z m234 -231 l97 -84 -29 -27 -28 -27 -29 44 c-17 23 -51 73 -76
111 -25 37 -43 67 -39 67 4 0 51 -38 104 -84z"/>
<path d="M2805 2120 c-110 -148 -201 -273 -202 -277 -1 -5 52 -48 119 -98
l121 -89 28 34 c16 19 29 37 29 41 0 4 -27 27 -60 51 -33 23 -58 48 -55 55 2
6 30 46 61 87 l57 76 49 -36 c27 -20 50 -35 51 -33 2 2 15 21 31 42 31 42 31
42 -36 84 -16 10 -28 21 -28 26 0 7 46 71 97 136 3 4 25 -11 99 -66 l31 -23
32 40 31 39 -116 86 c-64 48 -121 88 -128 90 -6 3 -101 -117 -211 -265z"/>
<path d="M8665 2219 c-77 -55 -140 -103 -140 -107 1 -12 46 -82 54 -82 3 0 23
11 44 25 20 14 41 24 46 21 5 -3 37 -45 70 -93 133 -190 243 -349 251 -362 6
-12 17 -8 58 18 77 49 79 53 42 103 -97 133 -289 415 -290 425 0 7 18 24 39
39 l39 26 -31 44 c-17 24 -33 44 -36 43 -3 -1 -69 -46 -146 -100z"/>
<path d="M3382 2023 c-22 -38 -83 -144 -137 -238 -167 -288 -164 -283 -152
-293 7 -5 34 -21 61 -36 40 -24 50 -26 61 -15 7 8 43 67 80 132 48 84 72 117
82 113 8 -3 17 -6 19 -6 10 0 1 -41 -37 -172 -22 -77 -37 -144 -32 -148 21
-20 122 -70 126 -63 2 4 22 79 43 165 l38 157 35 6 c50 9 92 44 123 101 71
133 40 195 -154 308 -53 31 -101 56 -107 56 -5 0 -28 -30 -49 -67z m192 -128
c22 -22 20 -63 -5 -105 -38 -62 -66 -72 -122 -44 -18 9 -34 18 -36 20 -2 2 18
41 45 88 l48 84 27 -14 c15 -7 34 -21 43 -29z"/>
<path d="M8268 1966 l-56 -32 165 -294 c91 -162 168 -297 170 -300 2 -3 33 11
69 30 l64 34 -26 45 c-14 25 -89 160 -167 299 -77 138 -146 252 -151 251 -6 0
-37 -15 -68 -33z"/>
<path d="M3946 1798 c-10 -28 -147 -671 -144 -672 10 -7 131 -56 137 -56 9 0
365 543 377 573 6 15 -8 24 -92 57 -19 7 -32 -11 -140 -190 -65 -109 -120
-197 -122 -196 -1 2 20 99 48 216 27 117 50 219 50 225 0 7 -21 21 -47 31 -27
11 -51 20 -55 22 -5 2 -10 -2 -12 -10z"/>
<path d="M7900 1772 c-32 -3 -244 -85 -263 -102 -10 -9 -7 -16 147 -382 l109
-257 50 20 c83 33 87 37 78 62 -5 12 -32 76 -60 141 -51 118 -53 135 -15 136
6 0 52 -56 103 -125 51 -69 96 -125 99 -125 14 0 132 53 132 59 0 4 -43 61
-96 126 -53 66 -101 125 -106 132 -6 8 -3 21 8 38 23 35 21 100 -6 162 -38 88
-92 123 -180 115z m47 -157 c29 -52 30 -98 1 -125 -21 -19 -65 -37 -72 -29 -6
7 -76 172 -73 174 30 17 59 24 87 22 29 -2 38 -8 57 -42z"/>
<path d="M7282 1560 c-73 -21 -135 -39 -136 -41 -7 -8 182 -653 192 -657 6 -2
41 6 79 17 37 11 100 29 139 40 l71 21 -10 45 c-6 25 -15 45 -21 45 -6 0 -41
-9 -78 -19 -37 -11 -69 -16 -72 -13 -4 8 -56 188 -56 195 0 3 23 10 50 17 28
7 52 16 55 20 3 5 0 29 -6 54 l-11 44 -50 -15 c-27 -8 -55 -12 -62 -10 -11 4
-46 119 -46 150 0 11 22 21 70 33 39 10 70 23 70 29 0 28 -22 85 -33 84 -7 0
-72 -18 -145 -39z"/>
<path d="M4527 1583 c-4 -6 -105 -344 -187 -625 -8 -27 -7 -28 61 -50 38 -12
70 -20 72 -17 2 2 46 146 97 319 51 173 95 320 97 327 3 7 -21 20 -62 32 -77
24 -72 23 -78 14z"/>
<path d="M4953 1358 c-22 -62 -79 -210 -125 -329 l-85 -217 65 -10 c36 -6 69
-9 73 -6 4 2 17 33 29 69 12 36 23 65 25 65 2 0 27 -5 54 -11 l50 -10 -5 -74
c-5 -82 -11 -76 90 -91 l49 -7 -6 159 c-4 88 -7 245 -7 350 l0 191 -62 12
c-35 7 -72 14 -83 17 -17 4 -25 -10 -62 -108z m92 -246 l-7 -114 -37 7 c-20 4
-37 8 -38 9 -2 1 16 58 39 127 24 70 44 116 46 105 2 -11 1 -71 -3 -134z"/>
<path d="M6869 1457 l-55 -10 3 -236 3 -236 -76 223 -76 224 -52 -7 c-28 -4
-55 -11 -60 -16 -9 -8 206 -634 222 -651 7 -6 137 13 146 22 14 15 24 693 10
695 -5 1 -34 -2 -65 -8z"/>
<path d="M5490 1363 c0 -16 -9 -154 -20 -308 -11 -154 -20 -297 -20 -317 l0
-38 49 0 c60 0 56 -15 72 250 8 116 16 186 20 175 7 -18 59 -391 59 -422 0 -9
16 -13 48 -13 l49 0 47 213 c27 116 50 214 53 217 2 2 2 -96 1 -218 l-3 -222
51 0 51 0 7 218 c3 119 9 274 12 345 l7 127 -81 0 -80 0 -48 -195 c-27 -107
-50 -192 -53 -189 -2 2 -17 90 -32 196 -18 122 -32 194 -41 199 -7 5 -43 9
-80 9 -67 0 -68 0 -68 -27z"/>
</g>
</svg>
